<?xml version="1.0" encoding="UTF-8"?>
<svg id="Layer_1" data-name="Layer 1" xmlns="http://www.w3.org/2000/svg" viewBox="0 0 1080 1920">
  <defs>
    <style>
      .cls-1 {
        fill: none;
      }

      .cls-2 {
        fill: #fff;
      }
    </style>
  </defs>
  <path class="cls-2" d="m847.22,1057.67l-82.25,27.55v-98.51h-68.54v98.51l-82.25-27.55-18.55,60.94,83.86,26.71-54.83,80.98,50.8,36.73,54.83-75.97,56.45,75.97,49.99-36.73-54.83-80.98,83.86-26.71-18.55-60.94Zm-185.46-330.58l-82.25,28.38v-98.51h-67.73v98.51l-82.25-28.38-18.55,60.94,83.86,26.71-54.83,81.81,49.99,36.73,54.83-76.8,56.45,76.8,50.8-36.73-55.64-81.81,83.86-26.71-18.55-60.94Zm-196.75,330.58l-82.25,27.55v-98.51h-67.73v98.51l-82.25-27.55-18.55,60.94,83.86,26.71-54.83,80.98,50,36.73,54.83-75.97,56.45,75.97,50.8-36.73-55.64-80.98,83.86-26.71-18.55-60.94Z"/>
  <path class="cls-1" d="m628.96,585.26c-65.68,64.67-126.53,29.94-161.43-2.82l13.47-5.44h127.5l20.46,8.26Z"/>
</svg>